<?xml version="1.0" encoding="UTF-8"?>
<svg id="Capa_1" data-name="Capa 1" xmlns="http://www.w3.org/2000/svg" viewBox="0 0 503.36 526.5">
  <defs>
    <style>
      .cls-1 {
        fill: #f0f0f4;
      }

      .cls-1, .cls-2, .cls-3, .cls-4, .cls-5, .cls-6, .cls-7, .cls-8, .cls-9, .cls-10, .cls-11, .cls-12, .cls-13, .cls-14, .cls-15, .cls-16, .cls-17, .cls-18, .cls-19, .cls-20, .cls-21, .cls-22, .cls-23, .cls-24, .cls-25, .cls-26, .cls-27, .cls-28, .cls-29, .cls-30, .cls-31, .cls-32, .cls-33, .cls-34, .cls-35, .cls-36, .cls-37, .cls-38, .cls-39, .cls-40, .cls-41, .cls-42, .cls-43, .cls-44, .cls-45, .cls-46, .cls-47, .cls-48, .cls-49, .cls-50, .cls-51, .cls-52, .cls-53, .cls-54, .cls-55, .cls-56, .cls-57, .cls-58, .cls-59, .cls-60, .cls-61, .cls-62, .cls-63, .cls-64, .cls-65, .cls-66, .cls-67, .cls-68, .cls-69, .cls-70, .cls-71, .cls-72, .cls-73, .cls-74, .cls-75, .cls-76, .cls-77, .cls-78, .cls-79, .cls-80, .cls-81, .cls-82, .cls-83, .cls-84, .cls-85, .cls-86, .cls-87, .cls-88, .cls-89, .cls-90, .cls-91, .cls-92, .cls-93, .cls-94, .cls-95, .cls-96, .cls-97, .cls-98, .cls-99, .cls-100, .cls-101, .cls-102, .cls-103, .cls-104, .cls-105, .cls-106, .cls-107, .cls-108, .cls-109, .cls-110 {
        stroke-width: 0px;
      }

      .cls-2 {
        fill: #372445;
      }

      .cls-3 {
        fill: #412d4c;
      }

      .cls-4 {
        fill: #f3bc6e;
      }

      .cls-5 {
        fill: #332548;
      }

      .cls-6 {
        fill: #242345;
      }

      .cls-7 {
        fill: #312b4c;
      }

      .cls-8 {
        fill: #302f59;
      }

      .cls-9 {
        fill: #35294d;
      }

      .cls-10 {
        fill: #cc7a6a;
      }

      .cls-11 {
        fill: #282856;
      }

      .cls-12 {
        fill: #26388b;
      }

      .cls-13 {
        fill: #201d3c;
      }

      .cls-14 {
        fill: #40385c;
      }

      .cls-15 {
        fill: #212141;
      }

      .cls-16 {
        fill: #202244;
      }

      .cls-17 {
        fill: #de4414;
      }

      .cls-18 {
        fill: #e7af62;
      }

      .cls-19 {
        fill: #422949;
      }

      .cls-20 {
        fill: #f7eee8;
      }

      .cls-21 {
        fill: #d4a15f;
      }

      .cls-22 {
        fill: #1d1e3f;
      }

      .cls-23 {
        fill: #252146;
      }

      .cls-24 {
        fill: #26264b;
      }

      .cls-25 {
        fill: #f9bd65;
      }

      .cls-26 {
        fill: #312a4b;
      }

      .cls-27 {
        fill: #262f63;
      }

      .cls-28 {
        fill: #362e4e;
      }

      .cls-29 {
        fill: #4a3e5e;
      }

      .cls-30 {
        fill: #9d97b9;
      }

      .cls-31 {
        fill: #492b4b;
      }

      .cls-32 {
        fill: #f9ba5a;
      }

      .cls-33 {
        fill: #3d2b4d;
      }

      .cls-34 {
        fill: #24244b;
      }

      .cls-35 {
        fill: #e74512;
      }

      .cls-36 {
        fill: #9f5f5f;
      }

      .cls-37 {
        fill: #232449;
      }

      .cls-38 {
        fill: #1b1936;
      }

      .cls-39 {
        fill: #f9c16f;
      }

      .cls-40 {
        fill: #23254e;
      }

      .cls-41 {
        fill: #33264b;
      }

      .cls-42 {
        fill: #432847;
      }

      .cls-43 {
        fill: #d6a467;
      }

      .cls-44 {
        fill: #e9b264;
      }

      .cls-45 {
        fill: #f8cbb2;
      }

      .cls-46 {
        fill: #fcdccb;
      }

      .cls-47 {
        fill: #f3c9b5;
      }

      .cls-48 {
        fill: #2b2647;
      }

      .cls-49 {
        fill: #2e2e58;
      }

      .cls-50 {
        fill: #db4e15;
      }

      .cls-51 {
        fill: #45294a;
      }

      .cls-52 {
        fill: #f29c22;
      }

      .cls-53 {
        fill: #302344;
      }

      .cls-54 {
        fill: #1d1d3c;
      }

      .cls-55 {
        fill: #aaa4c6;
      }

      .cls-56 {
        fill: #edcbbd;
      }

      .cls-57 {
        fill: #1e2041;
      }

      .cls-58 {
        fill: #33325c;
      }

      .cls-59 {
        fill: #f2f1f5;
      }

      .cls-60 {
        fill: #928bae;
      }

      .cls-61 {
        fill: #3a3352;
      }

      .cls-62 {
        fill: #212245;
      }

      .cls-63 {
        fill: #32294a;
      }

      .cls-64 {
        fill: #cc7c6c;
      }

      .cls-65 {
        fill: #28224d;
      }

      .cls-66 {
        fill: #20294d;
      }

      .cls-67 {
        fill: #1a1a36;
      }

      .cls-68 {
        fill: #f39b20;
      }

      .cls-69 {
        fill: #322a51;
      }

      .cls-70 {
        fill: #2d1c35;
      }

      .cls-71 {
        fill: #4b4778;
      }

      .cls-72 {
        fill: #1b1b38;
      }

      .cls-73 {
        fill: #c6796b;
      }

      .cls-74 {
        fill: #f59e1c;
      }

      .cls-75 {
        fill: #342c51;
      }

      .cls-76 {
        fill: #39294c;
      }

      .cls-77 {
        fill: #c7776a;
      }

      .cls-78 {
        fill: #1f203f;
      }

      .cls-79 {
        fill: #f6be6e;
      }

      .cls-80 {
        fill: #20294e;
      }

      .cls-81 {
        fill: #473957;
      }

      .cls-82 {
        fill: #2c1a37;
      }

      .cls-83 {
        fill: #3c2b4c;
      }

      .cls-84 {
        fill: #1e1d3d;
      }

      .cls-111 {
        fill: none;
        stroke: #1d1d1b;
        stroke-miterlimit: 10;
      }

      .cls-85 {
        fill: #2d2e5c;
      }

      .cls-86 {
        fill: #f1d0c1;
      }

      .cls-87 {
        fill: #6c4b62;
      }

      .cls-88 {
        fill: #cd7a6a;
      }

      .cls-89 {
        fill: #32325e;
      }

      .cls-90 {
        fill: #44284a;
      }

      .cls-91 {
        fill: #211f42;
      }

      .cls-92 {
        fill: #aea8c9;
      }

      .cls-93 {
        fill: #312142;
      }

      .cls-94 {
        fill: #3f3557;
      }

      .cls-95 {
        fill: #cc7969;
      }

      .cls-96 {
        fill: #2a2b54;
      }

      .cls-97 {
        fill: #222a52;
      }

      .cls-98 {
        fill: #f9b449;
      }

      .cls-99 {
        fill: #f9f0e9;
      }

      .cls-100 {
        fill: #1e1f3f;
      }

      .cls-101 {
        fill: #cd7c6d;
      }

      .cls-102 {
        fill: #f9d7c4;
      }

      .cls-103 {
        fill: #20284d;
      }

      .cls-104 {
        fill: #e0d8e0;
      }

      .cls-105 {
        fill: #423450;
      }

      .cls-106 {
        fill: #57444f;
      }

      .cls-107 {
        fill: #de4415;
      }

      .cls-108 {
        fill: #2c2e5b;
      }

      .cls-109 {
        fill: #ebe3e2;
      }

      .cls-110 {
        fill: #322749;
      }
    </style>
  </defs>
  <path class="cls-111" d="M295.89,502.69c10.95-3.62,21.72-7.6,31.91-13.05,3.2-.85,6.37-1.76,9.29-3.37,20.36-10.67,40.73-21.29,57.58-37.34,1.27-.6,2.57-1.18,3.61-2.16,3.86-4.27,7.33-8.86,10.66-13.54,5.33-11.63,7.38-23.75,5.46-36.46q-2.62-17.31,14.42-18.36c5.2-1.3,10.64-1.97,14.77-5.92,2.27-2.11,4.2-4.57,6.79-6.32,1.86-1.19,3.96-1.74,6.05-2.35,4.52-1.25,9.14-2.2,13.52-3.93,9.45-3.65,14.88-10.59,18.08-20.14,4.75-14.19,7.53-28.86,8.21-43.55,1.07-23.1-2.12-45.09-27.91-55.2-7.62-2.99-7.31-8.44-4.75-15.1,8.22-21.39,15.36-43.08,18.37-65.97,1.48-11.21-.01-21.7-4.38-32-4.87-11.47-12.23-21.25-20.26-30.6-.68-.81-1.51-1.41-2.5-1.78-.68.14-1.18-.1-1.5-.71-17.3-22.66-38.17-40.95-64.5-52.57-7.04-3.11-13.99-6.13-18.17-13.36-2.19-3.79-6.6-5.1-10.68-6.16-7.16-1.86-14.9-1.6-21.78-3.26-19.78-4.78-39.51-7.23-59.88-8.14-35.92-1.59-71.5-.82-106.62,7.19-9.36,2.13-20.75.45-27.73,6.78-10.97,9.94-24.14,15.75-36.14,23.66-29.83,17.92-53.26,42.42-72.22,71.2-8.89,13.49-9.59,28.72-7.35,44.67,2.47,17.64,8.19,34.26,13.62,50.98,6.85,21.09,7.2,20.98-11.9,31.49-9.07,7.07-13.46,16.3-15.36,27.74-3.64,21.89.7,42.69,6.56,63.4,2.1,7.42,5.32,14.55,12.46,18.86,4.46,2.16,9.05,3.96,13.89,5.05,3.06.05,6.11.1,9.17.14,4.37,2.71,7.39,7.02,11.67,9.84,3.9,1.26,7.79,2.52,11.69,3.79,1.4,1.47,3.19,2.08,5.15,2.41,12.75,2.11,12.55,2.09,10.64,15.14-2.39,16.36-1.95,32.26,9.49,45.84,22.15,24.07,41.33,25.62,69.44,43.65l10.61,7.11s5.09,3.73,8.04,5c10.37,4.45,21.24,7.4,31.95,10.79,7.29,2.88,14.96,4.44,22.71,4.67,10.23.3,19.33-.56,30.93-3.34,0,0,13.67-3.59,16.89-4.67Z"/>
  <path class="cls-38" d="M437.95,235.3c2.37,1.37,4.17,3.1,3.86,6.14.8,2.02,3.52,3.27,2.41,6.05-1.07,1.28-2.34,1.17-3.7.57-.78-.46-1.46-1.04-2.06-1.7-1.92-2.91-4.14-5.42-7.87-5.98-2.13-.53-4.12-1.56-6.33-1.71-5.07,1.53-3.15,5.8-3.32,8.97-.72,13.87-2.29,16.29-15.44,20.55-3.33,1.08-4.72,2.65-4.62,6.14.57,21.02-3.29,41.61-6.36,62.27-1.72,11.6-.95,12.67,10.47,14.56,2.55.42,5.09.79,7.68.91,13.28.64,16.31-1.37,20.9-13.66,2.6-6.95,3.84-14.31,6.45-21.26,6.66-18.09,5.39-36.7,3.64-55.33-.39-4.11-2.64-8.02-1.25-12.32,5.78-4.51,4.22,4.62,7.81,4.2,4.39-.55,6.39,4.81,10.75,4.33,4.44,2.71,1.86,4.12-1,5.49-2.98.62-4.32,2.46-4.06,5.51.88,25.12-2.95,49.57-10.06,73.57-10.66,13.98-23.27,23.19-42.11,17.08-3.27-1.27-6.7-.97-10.09-1.02-2.08.27-5.94-2.19-4.47,3.33.5,1.88.08,4.25-.48,6.34-.54,1.3-1.38,2.26-2.86,2.47-2.85.5-.88-5.99-5.08-3.47-.73,1.48-1.06,3.06-1.6,4.59-.79,1.85-1.94,3.2-4.18,3.08-3.06-1.13-3.11-3.58-2.77-6.21,1.22-3.9,2.89-7.64,4.17-11.52,7.45-17.35,10.23-35.71,12.09-54.3.96-9.58,2.52-19.1,1.94-28.79-.24-3.91-.3-7.74-3.38-10.7-11.88-6.22-25.11-8.26-37.79-11.78-35-9.7-70.58-16.5-107.15-14.5-30.77,1.69-60.86,7.88-90.29,16.84-11.83,3.6-24.45,4.48-35.2,12.68-4.1,3.13-12.95-.5-19.62-1.4-8.55-6.05-10-12.08-6.32-26.17,3.72-2.65,4.7.86,6.39,2.81,5.14,13.9,6.95,15.15,21.37,11.08,33.65-9.49,67.11-19.84,102.05-23.6,27.77-2.99,55.55-2.73,83.16,2.08,24.59,4.29,48.78,10.22,72.63,17.54,4.95,1.52,9.97,2.8,15.01,4,17.01,4.04,21.5-.51,17.43-17.75-3.42-14.48-10.87-26.13-23.92-33.89-8.62-5.13-17.13-10.45-26.73-13.66-16.74-7.3-34.57-10.74-52.27-14.63-3.81-.84-7.64-1.4-11.1-3.33-6.36-3.88-13.75-3.93-20.63-4.25-47.51-2.26-93.37,5.16-136.96,24.83-4.26,1.92-8.84,5.22-12.83-.63.89-5.78,5.82-7.45,10.11-9.34,35.3-15.52,72.25-23.39,110.84-24.56,34.94-1.06,68.89,3.69,102.12,14.2,14.38,4.92,28.68,10.08,41.53,18.45,4.21,2.74,7.17,2.24,8.9-2.79,6.07-17.58,10.58-35.28,5.54-54.02-2.63-9.78-8.13-17.23-16.39-23.17-23.09-16.61-49.81-24.33-76.67-31.62-10.27-2.79-20.81-4.66-31.29-6.7-28.21-5.5-55.47.4-82.42,7.2-25.39,6.41-50.48,14.25-72.25,29.75-7.45,5.3-14.36,11.1-17.14,20.34-1.66,4.24-2.95,8.59-4.11,12.98-2.04,7.28-.16,14.8-1.36,22.13-.68,2.15-1.35,4.31-4.26,4.21-5.32-5.92-4.64-12.98-3.89-20.06,1.38-7.17,3.37-14.29,1.75-21.72-1.35-6.15,4.49-8.77,6.59-13.23,10.54-13.07,23.89-22.27,39.39-28.5,5.29-1.12,4.38-4.69,3.26-8.34-.34-1.23-.54-2.48-.65-3.74-.93-4.24,1.73-9.19-2.56-12.76-1.18-.57-2.28-1.23-3.21-2.16-.49-.85-.39-1.62.29-2.33,1.71-.73,3.41-1.46,5.12-2.19,5.17-2.07,6.21,1.52,6.88,5.2.69,3.79.09,7.75,1.35,11.47.88,8.32,5.76,7.64,11.81,5.59,23.91-8.13,48.29-14.04,73.41-17.51,26.39-3.65,51.45,1.78,76.54,8.11,11.26,2.84,22.67,5.34,33.41,10,3.09,1.34,6.17,2.23,8.82-.9,2.31-3.65,2.55-7.89,3.29-11.92,1.93-10.52,1.79-10.55,12.21-7.78.7.27,1.03.78,1,1.53-2.87,2.79-7.11,4.75-5.96,9.94-.07,1.76-.29,3.5-.7,5.21-.88,4.4-3.18,8.96,1.49,12.72,15.57,6.68,29.85,15.23,41.15,28.11,2.76,3.15,5.55,6.28,6.93,10.37.22,2.05-.45,3.92-1.15,5.79,1.9,20.67,2.13,41.14-6.74,60.58-1.69,3.72-4.03,7.4-3.73,11.59.28,3.88.5,9.21,6.87,4.63.35-.77.74-1.51,1.13-2.26,1.78-2.99,2.5-6.27,2.63-9.72.23-2.37,1.02-4.54,2.33-6.52,1.13-1.52,1.57-3.4,2.54-4.99,1.19-1.97,1.59-5.63,4.84-4.42,2.6.97,2.24,4.11,1.92,6.64-2.04,8.83-4.95,17.4-7.99,25.94-3.67,10.26-3.19,11.52,6.27,16.95,2.32,1.13,4.27,2.95,6.85,3.57,2.15.34,4.38-.29,6.48.58,1.88,1.48.97,3.27.56,5Z"/>
  <path class="cls-72" d="M124.36,189.58c3.44,2.61,6.52,1.1,9.85-.54,28.66-14.11,59.3-20.71,90.81-24.64,21.28-2.65,42.37-2.24,63.56.13,3.1.35,5.74.81,7.2,3.85-4.41,4.08-9.32,1.59-14.07,1.08-40.65-2.16-80.67.81-119.49,14.23-17.53,6.06-34.15,13.67-48.39,25.78-6.19,5.82-10.31,12.9-12.74,21.01-1.12,2.99-1.16,6.26-2.29,9.25-.66,1.32-1.69,2.2-3.14,2.53-1.32-1.3-2.64-2.6-3.96-3.91-3-1.07-6-2.08-9.06-.15-5.4,2.66-10.43,5.72-13.11,11.47-2.82,4.98-3.94,10.4-4.33,16.03-1.25,24.05.43,47.57,9.63,70.31,5.82,14.39,9.26,17.34,24.41,15.65,16.21-1.81,16.42-1.83,14.85-18.03-1.89-19.57-6.34-38.88-5.86-58.7.09-3.7-1.76-5.94-5.46-6.92-2.31-.61-5.41-.73-5.3-4.42,5.37.59,10.99-1.45,16.15,1.56.7.41,2.24.76,2.44.48,8.45-12.18,22.81-10.25,34.56-13.82,35.79-10.87,72.31-18.32,110.04-17.34,31.36.81,61.94,6.7,91.91,15.52,12.23,3.6,25.21,4.99,36.54,11.48-.73.89-1.64,1.49-2.74,1.81-15.24-1.25-29.45-6.86-44.02-10.8-28.18-7.62-56.93-12.28-85.91-12.77-22.11-.37-44.46,2.17-66.19,7.33-20.1,4.77-40.12,9.88-59.99,15.62-6.15,1.78-8.87,4.55-8.87,11.42,0,28.92,3.32,57.21,13.87,84.35,1.43,3.67,1.64,7.56,2.71,11.28.29,3.38.35,6.64-4.08,7.44-1.55-.1-2.78-.85-3.83-1.88-.83-.54-2.15-2.46-2.58-.22-1.98,10.13-4.93,20.13-5.77,30.42-.72,8.8,2.25,16.95,9.16,22.52,22.04,17.75,46.15,32.08,72.91,41.7,8.76,4.19,18.09,6.77,27.23,9.88,24.39,8.29,46.92,1.23,69.22-8.03,32.13-11.01,61.03-27.38,85.4-51.28,5.39-5.46.5-13.67,5.21-19.31,5.35-1.53,5,2.19,5.03,5.48.13,13.57-6.18,23.93-16.26,32.39-4.51,5.67-10.7,9.3-16.67,13.05-21.69,13.64-44.72,24.44-68.76,33.41-26.68,9.95-52.8,10.31-79.5.13-31.89-12.16-62.54-26.28-88.87-48.55-11.45-9.68-15.82-21.72-13.53-36.23,1.61-10.2,3.5-20.36,5.69-30.45,1.7-7.83.39-11.38-8.85-9.55-8.5,1.69-17.2,2.33-26.01.44-6.7-1.43-11.24-4.44-12.92-11.21-.59-1.81-2.69-2.41-3.35-4.17-.85-2.11-1.6-4.27-3.07-6.08-4.09-7.36-4.93-15.69-7.17-23.62-.66-3.95-.27-8.04-1.74-11.86-.29-.99-.46-1.99-.58-3.01-.74-11.5.43-23.03-.73-34.48-1.17-2.07-3.02-2.16-5.07-1.67-.86.14-1.7.16-2.57.08-3.95-1.25-4.07-3.08-.81-5.4,1.03-.73,2.07-1.46,3.1-2.19,2.75-.56,5.39-1.47,7.97-2.55,4.9-.41,5.33-4.27,6.1-7.87.4-4.47,4.59-6.77,6.11-10.6,2.23-2.59,5.04-4.53,7.57-6.79,1.93-1.16,4.06-1.85,6.15-2.63.86-.35,1.74-.63,2.62-.9,8.65-3.27,8.42-9.39,5.56-16.59-5.12-12.89-10.77-25.66-10.9-39.93.08-3.08-.08-6.21,2.04-8.8,4.45-.96,4.26,2.74,4.94,5.2,1.7,6.12,2.97,12.36,4.83,18.43,1.12,3.1,2.21,6.21,2.91,9.45.99,3.35,1.58,6.92,5.12,8.72,5.3-2.23,1.93-5.88,1.23-8.73-1.85-7.44-5.74-14.4-5.22-22.41.25-1.95.69-3.81,2.5-4.97.58-1.31,1.16-2.63,1.73-3.94.79-.6,1.63-.67,2.53-.29,5.67,5.89,5.4,14.01,7.6,21.13,2.25,7.27,5.55,9.32,12.16,5.38.94-.03,1.8.22,2.57.77Z"/>
  <path class="cls-100" d="M149.76,41.78c21.93-8.35,45.01-11.32,68.1-13,43.37-3.16,86.6-1.74,129.09,8.91,2.47.62,4.85,1.58,7.27,2.38,2.63,2.12,8.33,3.6,1.58,7.66-14.04.16-26.79-6.5-40.62-7.64-8.31-.68-16.45-3.06-24.88-2.89-3.77-.07-7.55.06-11.27-.73-3.58-1.2-7.25-1.4-10.99-.9-33.37-.11-66.42,3.05-99.17,9.35-6-.62-11.3,3.98-17.44,2.37-2.37-1.29-2.77-3.19-1.68-5.53Z"/>
  <path class="cls-110" d="M379.61,438.84c6-8.43,13.94-15.88,14.65-27.07.23-3.61,3.31-8.49-3.12-10.22-1.11-.94-1.41-2.18-1.37-3.56.79-3.39.63-6.72-.75-9.95-.93-3.78-3.56-7.07-3.18-11.22-.23-2.92,2.91-5.31,1.34-8.45,1.57-4.05-3.15-11.24,5.8-11.61,2.9,2.33,6.73-.26,9.68,1.82,17.23,5.36,30.08-1.64,40.86-14.45.23-.95.83-1.52,1.76-1.77,3.57.13,7.16.53,10.57-1.04,3.15-.64,6.3-2.73,9.44.02-4.46,5.89-11.49,4.79-17.5,6.49-2.73.77-6.61-.56-8.1,2.3-7.47,14.36-20.56,12.5-33.08,11.56-17.78-1.33-17.74-1.58-14.38,16.18,1.62,8.57,3.78,17.1,4.55,25.75,1.33,14.92-3.54,27.33-17.17,35.22Z"/>
  <path class="cls-96" d="M410.43,77.12c21.99,15.9,40.69,34.59,51.22,60.21.46,1.13,1.06,2.2,1.6,3.3.35.87.44,1.76.31,2.69-.99,2.57-.04,5.67-2.19,7.92-.9.39-1.8.37-2.69-.04-5.42-12.53-8.19-26.34-18.73-36.35-9.08-8.62-17.53-17.89-26.77-26.36-2.09-1.92-4.86-3.3-5.17-6.6,1.14-1.42,3.54-2.21,2.42-4.78Z"/>
  <path class="cls-108" d="M459.12,151.01c.6,0,1.19.02,1.79.04,2.8,2.01,1.6,5.43,2.81,8,.25,1.47.08,2.88-.53,4.24-1.73,17.69-6.42,34.5-15.08,50.11-1.03.65-2.04.62-3.04-.08-2.1-3.04-1.3-6.25-.26-9.31,5.55-16.24,10.6-32.59,12.32-49.77.13-1.31.98-2.36,1.99-3.23Z"/>
  <path class="cls-96" d="M48.09,133.23c3.86-9.71,9.73-18.05,17.31-25.21,3.24-1.69,4.9-4.78,6.76-7.68,1.69-3.41,4.25-5.95,7.66-7.63,3-1.12,4.67-4.47,8.12-4.86.95.17,1.7.67,2.27,1.44.02,4.45-3.38,6.8-6.08,9.41-11.65,11.19-22.99,22.58-29.18,37.96-.71,1.76-1.84,3.49-4.31,2.97-2-1.67-1.54-4.32-2.55-6.39Z"/>
  <path class="cls-16" d="M410.43,77.12c1.14,2.3,1.33,4.13-2.09,4.14-13.25-3.96-23.48-13.55-35.87-19.09-4.73-3.51-4.71,4.95-8.62,3.44-.92-6.45.69-10.79,8.4-10.02,15.16,2.88,26.51,12.48,38.18,21.53Z"/>
  <path class="cls-82" d="M65.94,339.45c2.85,1.07,2.32,3.54,2.39,5.77-4.06,3.07-8.49-.04-12.68.77-4.59-1.28-9.16-2.64-13.56-4.5-.4-.4-.8-.8-1.2-1.2-1.42-4.4-1.51-9.38-5.46-12.69-.81-4.45-1.63-8.9-2.44-13.34.31-.32.62-.65.92-.98.85-.33,1.74-.42,2.64-.32.87.28,1.64.72,2.32,1.34,2.42,2.79,3.09,6.38,4.45,9.66,4.91,14.4,9.13,17.3,22.61,15.5Z"/>
  <path class="cls-57" d="M138.39,54.01c-.03.63-.04,1.25-.05,1.88.95,3.09-1.76,3.97-3.32,5.56-11.03,5.03-19.83,14.37-32.26,16.71-1.38-.7-2.46-1.55-1.56-3.32,10.86-9.69,22.32-18.29,37.2-20.83Z"/>
  <path class="cls-89" d="M52.48,192.42c-5.14-18.12-13-35.97-5.71-55.36,2.01,1.54,2.84,3.88,1.93,5.94-2.51,5.7-1.02,11.46-.72,17.19.11-2.84-.88-5.64-.77-8.43.11-2.73-.96-6.78,4.22-6.37,3.89,7.61,1.89,15.65,1.77,23.54-1.58,5.36-.92,10.48,1.78,15.37.38.82.58,1.68.66,2.58-.26,2.31-.85,4.43-3.17,5.55Z"/>
  <path class="cls-11" d="M474.34,267.41c1.55,4.19,3.87,8.23,2.55,12.98,1,8.18,1.04,16.37,0,24.55.27,8.64-1.73,16.83-4.95,24.78-.95.22-1.67-.09-2.18-.92-1.29-5.01.51-9.66,1.64-14.4,1.12-3.7.58-7.48.63-11.24-.36-7.21.83-14.48-1.06-21.61-.66-2.64-.82-5.31-.7-8.02.5-2.61.32-5.69,4.08-6.13Z"/>
  <path class="cls-16" d="M356.04,46.21c4-3.4-1.93-3.88-1.81-6.14,3.24-.51,6.57.46,7.01,3.59.88,6.23,6.06,7.55,10.01,10.39-6.29-1.11-10.28-.61-9.82,7.93.22,4.11-.21,9.43-3.4,13.35-2.39-2.08-2.46-4.95-2.62-7.78.55-7.1-1.21-14.28.64-21.34Z"/>
  <path class="cls-85" d="M52.48,192.42c.78-2.19,1.56-4.38,2.34-6.56,7.82,5.76,7.42,14.77,9.14,22.96-.53,2.57-1.16,5.11-3.55,6.7-3.82-7.29-6.68-14.92-7.92-23.09Z"/>
  <path class="cls-70" d="M472.82,316c-.81,4.49-1.61,8.97-2.42,13.46-.34,3.2-.97,6.28-3.32,8.72.37,1.6.09,2.83-1.79,3.17-3.39.64-6.78,1.28-10.16,1.92-.82.67-1.58.64-2.27-.2,6.09-6.2,13.07-11.84,13.56-21.56,1.71-4.3,1.14-8.95,2.06-13.38.79-.6,1.68-.9,2.67-.94,1.04.13,1.81.66,2.31,1.58.06,2.43.76,4.92-.64,7.22Z"/>
  <path class="cls-28" d="M474.34,267.41c-2.06,1.67-1.37,4.17-1.89,6.3-5.69-1.44-9.1-6.13-13.52-9.4-.48-.78-.59-1.6-.28-2.47,2.8-.05,3.87-1.13,2.3-3.81,5.82,1.2,10.5,4.02,13.39,9.38Z"/>
  <path class="cls-22" d="M50.77,145.19c-4.07,5.16-.66,11.3-2.37,16.96-5.58-8.12-.47-16.83-1.63-25.1-.19-1.49-.26-2.94,1.32-3.82,2.94,1.25,2.65,3.99,2.99,6.44.6,1.88.81,3.73-.31,5.51Z"/>
  <path class="cls-26" d="M45.11,259.7c-1.25,2.32-1.2,3.98,2.05,4.02-.83,5.35-5.99,6.84-9.1,10.17-.81.4-1.67.62-2.57.67-.91-.1-1.74-.42-2.47-.97-.42-.86-.39-1.7.1-2.52,1.29-6.64,5.82-9.88,11.99-11.38Z"/>
  <path class="cls-49" d="M60.4,215.51c.29-2.26-.26-4.83,2.27-6.28,5.24,3.05,6.96,7.89,6.99,13.61-.57,2.4-1.16,4.81-3.45,6.27-2.98-4.09-4.89-8.63-5.81-13.6Z"/>
  <path class="cls-24" d="M101.2,74.83c.83.86,1.66,1.72,2.5,2.59-2.12,6.73-7.11,10.1-13.67,11.61-.77-.04-1.53-.09-2.3-.13-1.37-3.63,3.27-4.08,3.61-6.81,2.82-3.05,4.97-7.01,9.86-7.26Z"/>
  <path class="cls-57" d="M149.76,41.78c.24,1.72.46,3.45,2.2,4.43.75,7.88,2.5,15.86-1.98,23.3-3.32-3.12-1.67-7.17-1.87-10.81-.19-3.38-.25-6.46-4.61-6.89,3.65-2.37,2.26-7.87,6.25-10.03Z"/>
  <path class="cls-37" d="M66.21,229.11c.49-2.15-.3-4.69,1.99-6.27,3.05,2.27,5.45,5.18,7.97,7.97-.78,4.37-4.35,4.91-7.77,5.68-.73-2.46-1.46-4.92-2.19-7.37Z"/>
  <path class="cls-62" d="M437.95,235.3c-.62-1.55-1.25-3.1-1.87-4.65-1.39-5.43.41-9.06,5.96-10.59,3.29,1.5,2.92,3.8,1.39,6.35-2.62,2.47-1.52,7.23-5.47,8.89Z"/>
  <path class="cls-28" d="M476.88,304.95c0-8.18,0-16.37,0-24.55,2.05,8.19,1.92,16.37,0,24.55Z"/>
  <path class="cls-8" d="M443.43,226.41c-.08-2.15.31-4.49-2.16-5.75-1.62-3.87-.37-6.44,3.56-7.78,1.09.17,2.19.34,3.28.51-.18,4.84-1.51,9.26-4.69,13.02Z"/>
  <path class="cls-58" d="M463.19,163.28c-.22-1.7-.43-3.4-.65-5.11-.83-4.8-.82-9.6,0-14.4.24-1.05.47-2.09.71-3.14,3.66,7.56,2.37,15.11-.05,22.65Z"/>
  <path class="cls-34" d="M54.87,344.91c4.49.1,8.98.2,13.46.3.62,1.56,1.24,3.11,1.86,4.67-5.2-1.19-10.4-2.39-15.6-3.58l-.39-.8.66-.59Z"/>
  <path class="cls-8" d="M91.33,82.09c.19,3.01-2.7,4.38-3.61,6.81-2.7,1.13-4.4,4.32-7.9,3.81,3.84-3.54,7.67-7.08,11.51-10.61Z"/>
  <path class="cls-62" d="M443.54,248.07c-.58-2.21-1.16-4.42-1.73-6.63,6.47,1.58,5.52,8.23,8.39,12.27-3.86.04-4.13-4.15-6.67-5.66l.02.02Z"/>
  <path class="cls-53" d="M54.87,344.91c-.06.47-.15.93-.27,1.39-4.6-.48-9.03-1.41-12.5-4.82,4.44.48,8.85,1.03,12.77,3.43Z"/>
  <path class="cls-53" d="M35.44,327.59c6.06,2.41,5.24,7.77,5.46,12.69-3.09-3.68-4-8.31-5.46-12.69Z"/>
  <path class="cls-26" d="M31.38,300.54c-1.18-5.22-1.17-10.45.02-15.66,1.13-.58,2.09-.37,2.88.62,2.24,4.81,2.25,9.63,0,14.45-.8.99-1.77,1.19-2.9.6Z"/>
  <path class="cls-105" d="M33.28,284.88l-.94.02s-.94-.03-.94-.03c-.53-4.74-.56-9.41,1.72-13.8.24.79.49,1.57.73,2.36,2.46,3.95,2.8,7.79-.57,11.45Z"/>
  <path class="cls-105" d="M31.38,300.54c.63-.04,1.25-.04,1.88,0,3.68,4.34,3.29,8.86.6,13.49,0,0-.87.22-.87.22-2.21-4.37-2.2-9.01-1.62-13.71Z"/>
  <path class="cls-37" d="M62.29,247.09c.69,4.54-.06,8.17-5.55,8.83-.7-.33-.95-.68-.75-1.06.21-.39.43-.59.65-.59,3.41-1.2,3.29-5.16,5.65-7.18Z"/>
  <path class="cls-8" d="M72.16,100.34c-.19,4.37-2.55,6.84-6.76,7.68,2.25-2.56,4.51-5.12,6.76-7.68Z"/>
  <path class="cls-83" d="M467.08,338.17c1.11-2.91,2.22-5.81,3.33-8.72.52.02,1.03.11,1.52.27-.46,3.48-.29,7.32-4.85,8.45Z"/>
  <path class="cls-26" d="M56.65,254.26c.06.55.09,1.1.09,1.65-2.7,1.26-5.43,2.42-8.52,1.59,2.34-2.3,5.34-2.88,8.43-3.24Z"/>
  <path class="cls-74" d="M124.36,189.58c-.42-.19-.84-.37-1.27-.52-9.53-14.06-16.74-29.24-22.16-45.3-.49-1.38-.57-2.75.14-4.1,1.38-3.92,1.25-8.34,3.86-11.86,12.21-14.18,28.66-22.21,45.42-28.76,37.9-14.8,76.98-24.67,118.26-22.52,5.85.3,11.62.69,17.24,2.37,26.62,7.96,51.11,19.94,72.7,37.67,8.87,7.28,11.5,15.89,8.27,26.69-2.51,8.41-6.02,16.38-10.3,24-1.66,2.97-3.05,6.79-7.85,5.5-37.8-10.61-76.09-17.37-115.55-13.85-33.59,3-66.32,9.8-97.19,23.89-4.05,1.85-8.39,3.39-11.57,6.79Z"/>
  <path class="cls-95" d="M130.79,374.13c.67.63,1.35,1.26,2.02,1.88,1.6,1.92,3.22,3.8,5.98,3.75,2.2-3.41-.33-6.39-.74-9.54-12.59-30.48-18.05-62.25-18.32-95.12-.06-7.87,2.65-11.53,10.16-13.66,32.55-9.25,65.15-18.6,98.95-21.6,23.1-2.05,46.27-1.2,69.44,2.34,26.94,4.12,52.86,12.02,79.14,18.66,11.71,2.96,12.4,4.04,12.34,15.9-.15,31.26-4.24,61.75-17.37,90.6-1.49,3.27-5.78,6.84-2.13,11.3.72-.27,1.37-.62,1.91-1.16.99-1.29,2.2-2.3,3.54-3.16,1.89-.67,1.6-2.43,1.96-3.87,1.34-1.28,2.74-1.13,4.19-.19,3.7,11.65,5.9,23.62,7.18,35.76,1.25,11.89-6.17,19.35-14.26,25.88-15.08,12.15-31.78,21.84-49.23,30.23-2.86,1.37-5.82,3.36-8.67-.08-1.01-4.64,2.63-7.01,5.07-9.79,15.44-17.59,28.93-36.34,35.84-59.08,1.59-5.25,3.14-10.51,3.49-16.02.78-12.29-2.03-16.84-13.37-21.66-3.2-1.36-7.58-1.8-8.02-6-.47-4.45,4.19-5.19,7-7,5.99-3.86,12.69-6.34,19.07-9.35.95-.72,3.39-1.08.94-2.8-1.7-1.2-3.78-1.9-4.65-4.05-2.15-5.97.29-12.46-2.13-18.4-1.86-4.43-3.86-8.81-5.22-13.44.91-7.98,8.31-6.68,13.11-9.06,2.76-1.37,7.29-.4,8.14-4.08.92-3.98-3.12-6.04-5.66-8.29-10.84-9.61-24.15-9.59-34.88.09-7.44,6.72-12.82,15.31-19.7,22.5-14.48,15.13-31.97,24.49-53.25,25.89-.9-.37-1.66-.94-2.28-1.69.16-5.5,5.04-7.14,8.38-9.9,14.91-12.36,29.4-25.14,43.39-40.47-14.15-5.02-27.99-5.91-41.58-6.96-21.38-1.64-42.69.37-63.72,4.66-11.2,2.29-12.17,4.89-5.2,13.77,8.13,10.36,18.52,17.99,30.17,23.97,1.64.84,3.45,2.6,5.17.56,1.92-2.29,3.46-4.94,7.05-3.23,3.72,1.77,5.98,4.88,7.36,8.64,1.49,4.1,2.37,8.18-1.62,11.56-1.3.75-2.7.98-4.17.87-28.69-5.72-50.15-21.85-67.47-44.98-11.62-15.52-26.97-16.25-41.86-3.7-2.18,1.84-5.23,3.62-4.5,6.88.66,2.93,4.09,2.6,6.45,3.4,4.82,1.64,10.3,1.58,14.22,5.54,1.52,2.88.32,5.52-.66,8.19-2.95,7.05-5.53,14.39-3.99,21.99,1.21,6-6.26,7.22-5.49,12.42,10.96,3.34,20.07,10.4,30.56,14.59,2,.8,4.5,1.89,4.17,4.68-.26,2.12-2.47,2.79-4.18,3.62-3.2,1.55-6.44,3-9.66,4.5-16.89,7.88-20.82,17.65-14.44,35.32,7.98,22.11,22.61,39.6,38.61,56.24,3.25,3.38,9.06,5.79,6.86,12.36-2.96,1.7-5.63.45-8.23-.87-17.21-8.72-33.98-18.1-49.46-29.77-12.18-9.19-17.96-20.2-14.91-35.78,1.41-7.21,4.18-14.15,4.3-21.67.04-2.89,2.27-3.58,4.85-2.08Z"/>
  <path class="cls-74" d="M96.97,241.1c.21-3.61.12-7.28,2.36-10.43,3.06-7.59,8.08-13.91,13.09-20.25,16.93-14.66,37.77-20.96,58.7-26.52,36.34-9.64,73.24-16.11,111.01-16.4,4.55.29,9.1.58,13.65.88,17.65,3.78,35.46,6.94,52.54,12.96,3.31,1.17,6.46,2.8,9.69,4.23,12.28,7.53,20.45,18.76,26.88,31.17,6.53,12.6,1.74,20.2-12.36,20.33-13.19.12-25.81-3.49-37.6-8.74-32.94-14.65-67.34-13.46-102.1-11.42-33.53,1.97-64.35,13.89-95.64,24.32-10.13,3.38-20.31,6.88-31.08,7.31-4.67.19-10.56.47-9.15-7.43Z"/>
  <path class="cls-35" d="M348.68,172.75c10.44-11.26,15.39-24.92,17.11-39.86.56-4.84-2.21-8.83-5.81-11.74-37.5-30.41-78.48-48.69-128.63-40.71-33.12,5.27-65.17,13.19-95.16,28.16-10.9,5.44-20.87,12.75-31.26,19.21,1.8-10.91,9.69-17.13,17.98-22.9,22.15-15.4,47.66-22.77,73.12-30.3,63.96-18.92,123.56-4.4,180.68,24.7,27.84,14.19,34.37,30,30.23,61.45-1.36,10.31-4.4,20.15-8.04,29.85-1.28,3.4-2.56,6.11-6.79,3.02-13.17-9.65-28.52-14.84-43.44-20.88Z"/>
  <path class="cls-35" d="M96.97,241.1c.45,4.77,3.58,5.32,7.57,5.12,10.44-.54,20.19-3.94,30.03-6.96,26.73-8.22,52.44-19.88,80.67-22.99,40.89-4.5,81.49-7.79,120.77,9.67,11.65,5.18,24.24,8.87,37.44,8.57,12.09-.27,15.07-5.06,9.61-16.06-4.32-8.71-10.49-16.18-16.94-23.4-2.77-3.1-6.49-5.39-8.09-9.48,24.21,9.01,46.67,19.94,53.22,48.34.36,1.57.78,3.14,1.01,4.73,2.59,17.84-2.04,22.17-19.31,17.61-34.31-9.06-68.2-19.73-103.64-24.15-45.44-5.68-89.52,1.11-133.14,13.11-13.07,3.6-26.09,7.4-39.2,10.84-17.25,4.52-18.63,3.53-21.29-13.77.33-.57.77-.95,1.31-1.16Z"/>
  <path class="cls-12" d="M444.83,212.88c-1.19,2.59-2.37,5.19-3.56,7.78-1.73,3.33-3.46,6.66-5.19,9.98-1.38,2.43-3.73,1.59-5.79,1.71-4.63-4.06-5.38-9.44-4.67-15.05,1.58-12.45,2.56-24.95,3.99-37.41.54-4.76,1.68-9.14,8.5-6.87,5.61,1.87,4.4-2.91,4.75-5.71,2.23-17.59-4.44-32.27-15.6-45.18-5.25-6.07-10.75-12.05-17.66-16.43-10.77-8.76-22.76-15.6-34.91-22.21-9.03-4.91-11.57-12.33-7.8-21.8,1.52-3.8,3.77-3.64,6.52-1.41,11.9,6.55,23.86,13.01,34.92,20.96,12.08,10.14,23.12,21.35,33.91,32.81,9.79,10.4,14.89,22.96,16.87,36.94.58,21.85-8.31,41.53-14.29,61.87Z"/>
  <path class="cls-66" d="M149.99,69.51c.79-7.75-1.8-15.8,1.98-23.3,5.36-.66,10-4.23,15.62-3.82.57,1.02.53,2.01-.1,2.99-2.63,4.19-12.31,5.09-9.27,10.46,3.3,5.86,9.58-.92,14.21-2.36,18.41-5.75,37.45-7.41,56.4-9.07,36.14-3.16,71.72-.6,105.53,14.21,6.94,5.44,14.27,9.86,23.65,8.93,0,2.6.01,5.19.02,7.79-1.71,5.27-4.4,5.15-9.41,3.27-32.02-12.05-64.87-21.63-99.38-20.46-28.02.95-55.08,8.59-81.73,17.17-2.14.69-4.21,1.62-6.35,2.3-9.94,3.17-10.76,2.56-11.17-8.12Z"/>
  <path class="cls-66" d="M97.48,263.6c13.61,4.9,12.75,4.96,13.87,21.39,1.32,19.44,3.95,38.81,6.78,58.11,1,6.83-.32,9.98-7.39,9.77-6.14-.18-11.99,1.85-18.14,2.18-10.22.55-15.01-4.21-18.61-13.06-10.29-25.27-13.32-51.43-11.41-78.39,1.02-.63,1.92-.49,2.7.41,3.1,6.11,1.64,12.68,1.77,19.06.15,8.08.15,16.14,2.01,24.08,1.35,5.77,4.89,8.44,10.58,7.11,6.56-1.53,12.54-4.9,14.25-11.76,1.69-6.77,3.1-14.21-3.77-19.63-6.07-4.8-6.65-11-6-18.28.85-9.39,4.09-19.19-2.13-28.13,3.92-2.83,7.57-4.25,9.73,1.9,1.7,8.47-4.75,18.79,5.77,25.24Z"/>
  <path class="cls-66" d="M441.63,317.97c-1.54,6.23-2.6,12.63-4.7,18.66-7.35,21.11-7.81,19.43-29.99,17.58-17.68-1.48-17.21-2.65-14.39-20.84,2.56-16.48,4.26-33.09,6.17-49.66.33-2.85.58-6.08-.41-8.64-2.9-7.5-.53-10.25,7.2-9.59,8.35.72,11.61-4.62,12.57-11.66.61-4.44.12-9.04.16-13.56.06-6.26,2.71-7.57,7.84-4.03-4.03,5.7-3.82,12.11-2.82,18.53,1.69,10.88,3.38,20.94-6.49,30.17-4.73,4.42-3.77,13.75-1.31,20.14,2.53,6.58,9.33,9.36,16.51,9.92,3.16.25,6.4-1.14,9.52.41.92.81.96,1.66.14,2.55Z"/>
  <path class="cls-12" d="M441.45,315.7c-8.13,3.8-15.79,2.5-22.75-2.65-4.95-3.66-9.04-7.42-7-15.21,1.83-6.98-2.9-15.92,8.19-19.51,3.38-1.09,2.49-6.2,2.38-9.74-.28-8.66-2.32-17.16-1.91-25.92.2-4.25.79-6.93,5.71-6.43,1.64,1.2,3.21,2.55,5.46,2.28,3.61,1.6,6.08,4.38,7.99,7.73l-.05-.06c10.51,22.89,8.77,46.12,1.97,69.5Z"/>
  <path class="cls-66" d="M134.44,59.66c1.3-1.26,2.61-2.52,3.91-3.78,1.29,0,2.59.02,3.88.02,5.98,4.01.69,10.83,3.88,15.53,0,1.29.02,2.58.03,3.87,2.19,4.63,1.21,8-3.89,9.72-14.93,6.25-27.47,15.9-38.87,27.18-8.13,8.71-14.39,18.92-22.74,27.51-5.02,5.16-9.38,11.35-9.5,19.95,2.71-2.46,2.52-7.55,6.68-6.33,3.57,1.05,3.65,4.71,3.28,8.17-.41,3.84-.09,7.73-.13,11.62.45,12.84,4.65,25.14,5.23,37.94.27,6.02,1.9,12.16-2.28,17.58l-.86.03h-.87c-6.64-12.12-3.74-25.85-6.49-38.63-.74-3.41.11-7.1-1.26-10.5-8.89,3.64-10.51,2.93-12.85-6.59-4.75-19.26,2.03-35.52,13.54-50.47,13.52-17.54,31.46-29.48,50.67-39.81,1.71-.92,3.49-1.71,5.2-2.62,10.46-5.6,11.45-11.47,3.45-20.42Z"/>
  <path class="cls-66" d="M373.42,60.3c-4.49-1.35-5.86,1.02-5.7,4.92.23,5.39-2.45,11.43,5.11,14.77,10.82,4.78,20.89,11.04,30.62,17.8,2.62,1.82,5.5,3.29,7.14,6.21,13.33,12.28,26.65,24.58,31.54,43.02,1.74,6.58,2.26,13.23,1.52,20.03-.53,4.82.24,8.96-7.66,5.67-6.29-2.62-5.53,4.91-5.8,8.27-1.11,13.8-2.78,27.54-4.14,41.31-.22,2.26-.09,4.55-1.94,6.27-12.49-4.93-13.34-7.18-8.46-20.18,3.02-8.06,5.65-16.26,8.45-24.4,1.89-8.1,1.09-16.55,3.27-24.62.8-2.95-.37-7.6,3.51-8.11,4.52-.6,4.39,4.36,6.22,8.77.03-12.1-7.44-18.71-13.27-26.1-3.16-4-7.83-6.8-9.45-12.01-13.04-16.45-29.29-28.66-48.6-36.87-4.73-3.95-2.91-8.85-1.96-13.62.01-1.93.02-3.87.03-5.8,3.22-1.72,1.1-13.03,9.57-5.31Z"/>
  <path class="cls-52" d="M458.65,261.84c.18.52.41,1.01.69,1.49,7.75,6.39,14.97,13.06,12.67,24.61-.9,2.66-7.78,1.55-4.39,6.95-2.13,4.96,1.35,9.32,1.48,14.04,4.11,4.69.01,8.93-.74,13.36-3.79,4.71-8.66,5.92-13.72,2.87-4.94-2.98-2.46-7.79-2.13-12.24,1.21-15.94,3.52-31.91.47-47.91-.76-5.78,3.34-2.89,5.67-3.17Z"/>
  <path class="cls-59" d="M417.26,187.65c-1.59,1.43-1.53,3.23-1.18,5.1-.94,3.64-1.88,7.28-3.98,10.48l.05-.05c-1.11,2.26-.92,6.44-5.17,4.56-2.8-1.24-5.41-3.46-4.94-7.17.31-2.46,1.35-4.79,2.06-7.18,7.59-16.68,10.8-34.07,9.53-52.42-.25-3.65-3.15-9.43,2.04-11.08,4.19-1.33,6.93,3.78,9.86,6.65.92.91,1.51,2.08,2.05,3.26,2.27,11.65-.14,22.98-4.28,33.57-1.84,4.71-2.17,10.35-6.05,14.27Z"/>
  <path class="cls-107" d="M452.99,265.01c4.15,6.12,2.09,13.04,2.08,19.54-.01,11.1,1.65,22.29-1.31,33.34-1.33,4.96,1.2,7.32,6.29,6.42,2.81-.49,5.55-1.34,8.32-2.03-1.44,9.69-4.92,17.84-15.52,20.67-2.08,2.13-4.75.74-7.11,1.19-.74,0-1.47,0-2.2,0,2.5-11.93,5.3-23.8,7.43-35.79,2.55-14.32,1.94-28.85,2.03-43.33Z"/>
  <path class="cls-80" d="M424.1,228.58c1.44-16.28,2.64-32.59,4.44-48.83.78-7.07,3.16-13.38,12.48-6.25,4.07-21.9-2.87-39.28-16.88-54.53-4.55-4.95-10.45-8.7-13.55-14.96,21.22,15.17,36.5,33.7,35.07,61.7-.05.97-.05,1.94-.15,2.91-.42,3.87-.57,8.56-4.32,10.21-3.57,1.57-2.98-5.5-7.52-5-3.49,5.85-2.39,13.04-2.72,19.41-.66,12.98-6.33,26.03-.65,39.11-2.06-1.26-4.13-2.52-6.19-3.78Z"/>
  <path class="cls-78" d="M417.26,187.65c4.64-15.67,9.06-31.38,8.7-47.95-3.04-6.11-8.88-9.53-13.58-14.05.66-1.25,1.33-2.5,1.99-3.75,9.01,6.49,15.77,15.02,21.77,24.2,1.22,1.87,2.48,3.96,2.85,6.09.73,4.29,2.68,11.39-1.48,12.15-6.36,1.16-2.28-6.16-3.97-9.33-.43-.81-1-1.55-2.29-3.52-3.09,11.41-1.91,22.75-7.16,32.49,0-1.88,0-3.76,0-6.33-4.02,2.88-2.11,8.66-6.83,9.98Z"/>
  <path class="cls-15" d="M80.03,170.41c-.45-5.3,1.34-10.98-2.45-15.87-4.82,2.4-2.03,7.79-5.06,11.42-6.1-4.99-4.79-10.64-1.61-16.05,8.52-14.5,19.99-26.55,32.46-37.69-8.8,9.62-2.65,22.59-7.44,33.1-2.83-1.89-2.54-4.91-2.84-7.7-.39-4.53-2.68-2.79-4.84-1.41-4.35,2.96-6.04,6.65-4.65,12.07,1.06,4.13,1.86,8.69-1.63,12.44,0,3.24-.01,6.48-.02,9.72-.65.89-1.29.84-1.92-.03Z"/>
  <path class="cls-66" d="M412.38,125.65c6.76,2.53,11.7,6.81,13.58,14.05-3.44-3.2-6.89-6.41-12.29-11.43,3.56,24.38.98,45.83-8.73,66.13-1.52-1.41-1.39-2.96-.38-4.58,6.92-19.5,10.83-39.3,6.04-59.99-.38-1.64.44-3.11,1.78-4.19Z"/>
  <path class="cls-93" d="M386.83,261.79c.76-.1,1.52-.2,2.28-.29,6.63,6.75,4.24,15.35,3.66,22.94-1.71,22.24-3.27,44.62-10.96,65.92-1.09,3.02-1.78,6.17-4.11,8.58-.37-.41-.74-.81-1.1-1.22,4.53-17.88,9.41-35.67,10.94-54.17,1.16-13.96,3.58-27.91-.71-41.76Z"/>
  <path class="cls-62" d="M441.45,315.7c4.77-23.32,6.36-46.55-1.97-69.5,1.35.62,2.7,1.25,4.05,1.87,0,0-.02-.02-.02-.02,5.19,20.03,5.19,40.21,2.06,60.55-.55,3.58-1.06,6.91-3.96,9.37-.06-.76-.11-1.51-.17-2.27Z"/>
  <path class="cls-93" d="M387.17,376.13c1.29,3.89,2.57,7.79,3.86,11.68-2,3.21,2.62,6.41.03,9.62.02,1.37.05,2.74.07,4.11-1.27,7.06,3.18,15.33-4.49,21.02,3.83-16.92-1.43-33.05-4.29-49.36.37-2.9-1.14-5.01-3.03-6.95.26-2.28,1.22-5.26,3.45-4.66,4.55,1.23,1.6,5.76,2.65,8.67,1.42,1.71,2.78,3.43,1.75,5.86Z"/>
  <path class="cls-78" d="M404.55,189.82c.13,1.53.26,3.05.38,4.58-.51,1.8-1.05,3.59-1.53,5.4-.89,3.33,1,5.73,3.44,7.09,3.58,2.01,3.11-3,5.29-3.71.36,3.32.56,7.47-3.85,7.11-3.84-.32-6.72-3.87-7.34-7.93-.7-4.57.83-8.81,3.6-12.54Z"/>
  <path class="cls-61" d="M95.39,135.32c.18,3.33.36,6.66.54,9.99-.91,7.2.35,14.22,1.83,21.21-.18,2.1-.37,4.21-.55,6.31-8.14-8.24-9.2-30.24-1.82-37.51Z"/>
  <path class="cls-61" d="M101.07,139.67c.28,1.31.56,2.62.85,3.92.78,6.34,4.38,12.73-.3,18.99-.71,0-1.42,0-2.13,0,.81-7.62-1.97-15.49,1.58-22.92Z"/>
  <path class="cls-57" d="M146.1,71.44c-4.11-4.48-.02-10.99-3.88-15.53,7.82,3.55,2.24,10.44,3.88,15.53Z"/>
  <path class="cls-16" d="M363.81,71.41c.18,4.61-.73,9.37,1.96,13.62-6.64-3.68-4.41-8.63-1.96-13.62Z"/>
  <path class="cls-93" d="M375.71,374.32c-.72,1.26-1.44,2.52-2.16,3.78-3.89.31-3.48-2.64-3.84-5.02.51-1.86.58-3.97,2.66-5.01.46.16.93.32,1.4.48-.11,2.18-.49,4.45,1.95,5.77Z"/>
  <path class="cls-62" d="M439.53,246.25c-2.66-2.58-5.32-5.15-7.99-7.73,4.99.17,7.58,2.83,7.99,7.73Z"/>
  <path class="cls-57" d="M142.24,85.03c3.34-2.43,4.37-5.78,3.89-9.72,2.64,4.81,4.27,9.22-3.89,9.72Z"/>
  <path class="cls-36" d="M379.32,366.26c4.49-1.71,4.52.9,3.97,4.08-.62.93-1.28.95-1.96.06-1.22.02-2.44.03-3.65.05-.36-1.75.2-3.14,1.65-4.19Z"/>
  <path class="cls-78" d="M412.1,203.24c.23-3.91,1.83-7.3,3.98-10.48.45,4.17.05,8.01-3.98,10.48Z"/>
  <path class="cls-93" d="M377.7,358.94c-.23,3.65-1.25,6.97-3.94,9.61,0,0-.52-.38-.52-.38-1.92-4.51-.18-7.57,3.85-9.74l.61.51Z"/>
  <path class="cls-72" d="M387.17,376.13c-.59-1.95-1.17-3.91-1.75-5.86.59-.63,1.17-1.26,1.76-1.89,2.41,2.59,2.71,5.17,0,7.76Z"/>
  <path class="cls-72" d="M402.67,358.59c-3.28-.32-6.91,1.18-9.68-1.82,3.26.45,6.92-1.27,9.68,1.82Z"/>
  <path class="cls-45" d="M194.83,463.47c-11.02-12.54-23.6-23.74-32.89-37.74-9.09-13.7-17.67-27.49-18.22-44.9-.27-8.65,2.99-14.29,9.98-18.15,7.02-3.88,14.34-7.2,22.05-11.03-11.94-5.92-23.76-11.77-35.57-17.62,4.24-5.89,9.53-6.04,15.42-2.83-.88,2.85.69,4.31,3.01,5.56,9.3,5.03,18.75,5.93,28.48,1.3,2.25-.99,4.65-1.22,7.06-1.41,2.87-.05,5.8-1.53,8.59.33.49.84.95,1.81.62,2.7-.38,1.02-.71,2.65-2.53,1.58.73.96,1.5.49,2.26.05,8.17-4.71,17.45-6.12,26.34-8.53,7.65-2.08,14.27-5.39,19.82-10.96,3.28-6.24.4-11.31-3.47-15.84-2.54-2.98-6.04-5.77-6.18,1.61-.07,3.73-1.92,3.56-4.31,2.24-15.38-8.47-30.17-17.59-39.78-33.07-3.7-5.97-2.83-9.05,4.33-10.71,36.79-8.51,73.56-8.5,110.42-.51,6.18,1.34,6.63,3.21,2.18,7.8-16.19,16.7-33.87,31.7-51.77,46.47.53,2.21,2.79,2.53,4.2,3.78,12.25,7.35,25.16,13.08,38.7,17.67,4.2,1.42,3.5-1.11,4.41-2.92.84-.54,1.72-.92,2.67-1.18,4.12-.61,8.19-.73,12.16.78,7.39,4.59,14.53,2.37,21.79-.58,6.32-2.57,11.87-7.82,19.56-6.05,1.59.39,2.97,1.07,3.79,2.58-8.94,4.8-17.88,9.61-26.7,14.34.18,2.96,2.48,3.53,4.06,3.94,18.69,4.77,21.17,14.21,17.3,32.14-6.05,27.96-21.55,50.67-40.62,71.3-1.74,1.89-3.44,3.82-5.16,5.72-3.34,6.13-9.59,8.59-15.12,11.96-33.42,17.52-66.45,15.52-99.17-1.99-2.9-2.29-7.06-3.35-7.69-7.86Z"/>
  <path class="cls-12" d="M134.44,59.66c3.4.15,7.71-.92,7.44,4.74-.27,5.71,2.64,12.11-5.36,15.78-17.06,7.82-33.29,17.25-46.91,30.3-18.32,17.55-32.43,37.06-25.02,64.68.41,1.54,1.08,3.02,1.79,4.46.22.46.94.68,1.85,1.31,1.85-2.47,3.7-4.93,7.01-9.34,4.47,20.07,4.45,38.78,6.95,57.12-1.47,2.22-3.99,1.43-6,2.1-5.36.04-6.99-3.64-7.97-7.97-.48-5.09-3.67-9.08-5.53-13.61-2.62-7.79-5.24-15.58-7.86-23.37,0,0-.07.1-.07.1-2.58-4.22-3.36-8.91-3.69-13.73-.1-9.01-.2-18.02-.29-27.03-.44-1.87-1.23-3.76.31-5.52,7.3-21.23,24.78-34.67,38.94-50.64,4.56-3.87,9.12-7.74,13.67-11.61,10.25-5.92,20.5-11.84,30.74-17.75Z"/>
  <path class="cls-12" d="M81.99,236.45c3.91-.13,7.7-1.17,6.53,5.68-1.46,8.53-.16,17.37-2.16,26.01-1.14,4.93.4,9.56,4.99,12.74,5.3,3.66,8.53,18.18,5.62,24.63-3.2,7.09-16.85,13.82-23.87,11.79-4.17-1.21-6.05-3.75-6.81-8.25-2.58-15.11-1.63-30.3-1.74-45.47.16-5.46,1.52-10.62,3.88-15.54,2.42-6.32,7.97-8.99,13.56-11.6Z"/>
  <path class="cls-95" d="M377.09,358.43c-2.22,2.88-3.47,6.13-3.84,9.74-.57,1.33-1.13,2.65-1.7,3.98-1.23,3.12-2.36,6.21,2.01,7.91-.42,3.42-2.72,4.75-5.44,3.26-4-2.19-2.77-6.41-1.69-9.5,2.22-6.34,5.42-12.34,7.92-18.59,10.83-27.09,13.21-55.48,12.84-84.29-.05-4.14-1.61-6.53-5.79-7.62-30.48-8.01-60.66-17.08-92.09-21.17-50.72-6.6-99.37,3.03-147.53,17.42-.31.09-.63.15-.94.25-20.74,6.53-22.76,11.54-19.83,33.29,3.66,27.16,8.43,53.87,19.3,79.19,1.09,1.26.97,2.62.34,4.02-5.11.88-1.87-4.62-4.38-5.73-11.82-31.02-17.9-63.05-17.62-96.32.07-7.95,2.38-12.02,10.6-14.21,38.75-10.31,77.24-21.41,117.8-22.48,33.98-.9,66.91,4.97,99.53,13.55,13.42,3.53,26.84,7.11,40.26,10.66,4.28,4.39,3.99,10.03,3.86,15.42-.65,27.71-4.56,54.9-13.6,81.21Z"/>
  <path class="cls-79" d="M282.14,167.5c-20.67,4.98-42.11,4.13-62.92,8.58-31.79,6.79-63.95,12.07-93.1,27.6-4.8,2.56-9.76,4.94-13.28,9.34-3.33-.14-2.93-1.98-1.88-4.11,13-13.06,29.26-20.54,46.34-26.32,40.53-13.72,82.01-20.15,124.85-15.08Z"/>
  <path class="cls-1" d="M95.39,135.32c-3.46,12.7-2.11,25.17,1.82,37.51.98,9.02,4.53,17.27,7.86,25.56,1.25,3.11.63,5.48-1.61,7.82-2.5,2.61-3.85.43-5.44-1.05-2.29-3.35-3.27-7.46-6.09-10.5,1.53-3.42-1.29-5.76-2.13-8.6-2.32-12.46-6.24-24.55-7.22-37.38-.51-6.69,1.09-11.14,6.03-14.96,2.37-.55,3.21-4.26,5.95-3.3.76.27.58,3.2.83,4.9Z"/>
  <path class="cls-68" d="M41.44,323.63c-1.11-3.31-2.21-6.62-3.32-9.92-.12-.89-.03-1.77.24-2.62,2.02-4.28,3.98-8.59,5.91-12.9.76-1.87-.09-3.64-.41-5.45-.04-.69.05-1.36.21-1.99-.45-2.17-1.99-.17-2.88-.71-1.44-.18-2.56-.81-3.28-2.1-2.83-7.74-.43-13.9,5.69-18.94,1.99-1.64,4.08-3.21,5.31-5.57,1.23-2.79,3.6-1.22,5.5-1.43,3.08,4.56.25,9.27.33,13.9.23,13.08-.84,26.21,1.52,39.21.37,11.54-4.17,14.14-14.83,8.53Z"/>
  <path class="cls-4" d="M101.62,162.58c.1-6.33.2-12.66.3-18.99,6.78,15.29,15.87,29.5,21.17,45.48-11.15,8.48-11.31,8.53-15.37-4.22-2.33-7.32-4.09-14.83-6.1-22.26Z"/>
  <path class="cls-95" d="M194.83,463.47c3.19,2.01,6.17,4.22,7.69,7.86-28.15-9.67-53.3-24.5-75.58-44.15-5.07-4.48-7.43-10.81-7.48-17.4-.11-14.52,4.77-28.2,7.02-42.59,4.14,1.6,3.63,4.56,4.3,6.93-7.15,6.99-5.81,16.72-7.81,25.26-3.6,15.33,4.73,25.63,16.16,34.44,13.87,10.7,29.65,18.17,44.56,27.1,3.44,2.06,7.13,2.97,11.14,2.54Z"/>
  <path class="cls-95" d="M301.69,473.32c4.27-4.96,9.31-8.95,15.13-11.96,7.74,2.86,12.66-3.46,18.47-6.13,11.73-5.38,22.09-13.25,33.01-20.1,18.02-11.31,21.79-26.54,15.87-45.74-1.89-6.14-3.58-12.42-2.84-19,.65-.02,1.31-.04,1.96-.06,1.75,8.84,3.48,17.69,5.25,26.53,1.74,8.75.9,17.3-1.88,25.71-24.13,23.9-53.15,39.65-84.96,50.75Z"/>
  <path class="cls-17" d="M41.44,323.63c5.75-.22,14.56,4.86,13.25-7.62-.57-4.73-3.41-9.79,2.02-13.64.46.48.52,1.01.18,1.58,2.01,3.79-.69,8.28,1.76,12.01,3.41,7.53,2.93,16.26,7.29,23.49-4.34,5.85-17.61,3.02-21.26-4.81-1.6-3.43-2.19-7.33-3.24-11.01Z"/>
  <path class="cls-103" d="M80.03,170.41c.64,0,1.28.02,1.93.03.14,14.81,6.67,27.8,11.87,41.16,3.52,9.05.16,14.92-9.91,17.08-1.29-19.42-2.59-38.84-3.88-58.26Z"/>
  <path class="cls-50" d="M56.71,302.37c-3.78,4.09-1.14,9.12-2.02,13.64-3.85-14.76-1.66-29.65-.97-44.51.15-3.17.46-6.34.7-9.51,2.91.17,2.39,2.38,2.39,4.16-.01,12.07-.06,24.15-.1,36.22Z"/>
  <path class="cls-66" d="M88.61,133.72c-5.25,5.24-5.57,11.43-4.85,18.53,1.17,11.46,6.04,22.2,6.04,33.81-4.87-7.75-3.81-17.33-7.83-25.35-.18-4.1.53-8.49-.74-12.23-2.66-7.87.62-11.99,7.38-14.76Z"/>
  <path class="cls-44" d="M48.92,263.42c-.02,2.02-.62,3.93-2.24,5.09-7.17,5.1-8.51,12.25-7.47,20.32,1.92,2.07,2.46,4.61,2.52,7.32.08,1.05.09,2.1.08,3.16.01,4.25-1.04,8.3-2.26,12.33-.47.69-.94,1.38-1.41,2.07,0,0-.9.3-.9.3-1.72-1.96-1.87-4.35-1.88-6.78.94-11.29-2.11-22.8,1.9-33.92,2.14-4.4,6.87-6.12,9.92-9.58.61.06,1.2-.04,1.75-.3Z"/>
  <path class="cls-18" d="M110.95,208.91c.63,1.37,1.26,2.74,1.89,4.12-4.5,5.88-9,11.76-13.51,17.65,1.24-8.66,5.45-15.73,11.62-21.76Z"/>
  <path class="cls-31" d="M136.27,370.59c2.85.81,1.81,4.36,3.98,5.65,1.12,2.64,2.06,5.27-.66,7.57-3.97-1.11-6.58-3.41-6.78-7.8,3.91-.05,3.48-2.87,3.46-5.42Z"/>
  <path class="cls-37" d="M68.42,248.06c-1.29,5.18-2.59,10.36-3.88,15.54-.66,0-1.32,0-1.98,0,1.91-5.19.98-11.46,5.86-15.54Z"/>
  <path class="cls-6" d="M91.92,194.66c5.21,1.66,5,6.46,6.09,10.5-4-2.36-4.96-6.49-6.09-10.5Z"/>
  <path class="cls-50" d="M58.65,315.96c-3.55-3.57-1.43-7.97-1.77-12,2.18,3.77,1.81,7.91,1.77,12Z"/>
  <path class="cls-38" d="M111.89,203.6c-1.69.63-2.35.08-2.42-.98-.09-1.39.49-2.62,2.02-2.72.69-.05,1.42.66,2.14,1.03-.66,1.03-1.33,2.05-1.73,2.68Z"/>
  <path class="cls-97" d="M358,67.55c-3.15,4.93-7.35,2.85-10.93,1.14-4.27-2.05-9.28-3.06-12.29-7.29,3.93-2.81,7.35-.14,10.91,1.02,2.41.78,5.14,2.31,6.7-1.01,1.23-2.6.14-5.05-1.86-6.99-2.15-2.09-4.99-2.88-7.73-3.85-13.75-4.88-28.04-7.41-42.41-9.54-3.79-.56-7.85-.13-10.6-3.66-.55-.94-.52-1.85.09-2.74,20.63.85,40.62,5.35,60.47,10.66,1.84.49,3.78.63,5.67.93,3.62,6.84,1.44,14.21,1.96,21.33Z"/>
  <path class="cls-27" d="M289.9,34.62c0,.67,0,1.34,0,2.01-3.75,3.42-8.46,2.85-12.9,2.79-33-.47-65.91.09-98.4,6.89-3.79.79-7.75,1.08-11.01-1.91,0-.67,0-1.35,0-2.02,25.72-5.33,51.84-7.46,77.97-9.33,7.61-.55,15.29-.17,22.94-.22,3.06,1.89,6.8-.37,9.85,1.62,3.85.06,7.7.11,11.56.17Z"/>
  <path class="cls-97" d="M278.34,34.46c-3.33-.22-6.94,1.2-9.85-1.62,3.35.1,6.97-1.35,9.85,1.62Z"/>
  <path class="cls-72" d="M391.06,397.44c.41-3.21-4.11-6.4-.03-9.62,1.21,3.2,3.72,6.4.03,9.62Z"/>
  <path class="cls-38" d="M445.73,344.13c2.37-.4,4.74-.79,7.12-1.19.76.1,1.52.21,2.28.31-2.91,2.72-6.12,2.14-9.4.87Z"/>
  <path class="cls-54" d="M462.54,143.77c0,4.8,0,9.61.01,14.41-2.54-1.93-1.12-4.75-1.64-7.13.54-2.42-.93-5.3,1.63-7.27Z"/>
  <path class="cls-53" d="M37.14,308.2c.03,1.93.06,3.86.09,5.8-1.12,0-2.25.01-3.36.02-.2-4.5-.4-8.99-.6-13.49,0-5.22.01-10.43.01-15.65.19-3.82.38-7.63.57-11.45.51-.08,1.02-.11,1.53-.1,2.5,11.53-.74,23.35,1.76,34.88Z"/>
  <path class="cls-40" d="M51.07,172.22c2.37,4.27,3.26,8.94,3.69,13.73-4.66-3.66-5.91-8.23-3.69-13.73Z"/>
  <path class="cls-21" d="M470.66,288.7c2.72-11.34-5.75-17.72-11.32-25.37,5.67,1.82,9.65,5.78,13.12,10.38.11,2.41.22,4.81.33,7.22,1.57,2.61.57,5.47.82,8.2-.09.98-.55,1.73-1.43,2.2-.46-.07-.93-.13-1.39-.2-.5-.52-.68-1.05-.55-1.6.13-.56.28-.83.43-.83Z"/>
  <path class="cls-106" d="M472.41,290.76c.13-3.28.25-6.56.38-9.84,3.91,7.51,1,15.55,1.79,23.3-1.14.69-2.09.49-2.87-.58-2.09-4.42-2.2-8.73.7-12.88Z"/>
  <path class="cls-23" d="M472.75,304.38c.61-.01,1.23-.06,1.83-.15-.48,3.94,1.39,8.23-1.76,11.77-.1-2.68-.19-5.35-.29-8.03-1.03-1.26-.83-2.45.22-3.58Z"/>
  <path class="cls-39" d="M469.1,308.92c-2.55-4.47-9.29-8.28-2.26-14.26-1.47-3.99-.44-5.51,3.81-3.87l.18-.06c1.25,5.75,1.56,11.49-.16,17.22-.38.55-.9.88-1.57.97Z"/>
  <path class="cls-43" d="M470.67,307.95c.05-5.74.11-11.48.16-17.22.52.02,1.05.03,1.57.03.11,4.54.23,9.08.34,13.62-.07,1.2-.14,2.39-.22,3.58,0,0-.93.24-.93.24l-.93-.26Z"/>
  <path class="cls-105" d="M37.14,308.2c-4.23-11.44-.88-23.27-1.76-34.88.62-.02,1.24-.03,1.87-.03-.03,11.64-.07,23.27-.1,34.91Z"/>
  <path class="cls-67" d="M151.64,290.85c-6.23-1.69-12.41-3.65-18.71-5.01-7.2-1.55-6.18-4.59-2.43-9.06,14.92-17.82,35.13-18.56,49.4-.43,15.16,19.26,31.9,35.49,56.54,41.96,2.88.76,7.48-.75,9.29,3.51.04,1.01-.29,2.42-1.07,2.46-9.18.38-16.87,6.29-25.98,6.85-3.15-.55-5.59-3.1-8.91-3.2-5.23-.92-9.95-4.94-15.73-2.46-5.27.94-9.72-.8-13.65-4.18-2.13-2.04-3.94-4.5-4.39-7.33-1.85-11.56-10.26-15.42-20.17-17.69-2.9-.63-2.28-3.99-4.19-5.39Z"/>
  <path class="cls-67" d="M263,320.26c21.2-4.69,40.59-12.53,54.6-30.29,5.4-6.84,10.91-13.73,17.23-19.68,16.56-15.61,36.42-3.5,45.71,9.3,2.79,3.85-.44,4.9-3.45,5.79-5.89,1.73-11.72,3.66-17.65,5.2-2.26.58-3.51,1.37-3.24,3.8.96,1.72-.08,2.53-1.45,3.2-13.51-.48-20.25,7-22.84,19.38-3.71,7.35-9.86,9.76-17.7,8.62-3.24-.47-6.43-.15-9.62.4-5.52-.23-9.55,4-14.68,4.93-8.06.38-14.25-5.37-21.81-6.63-2.1-.83-5.24-.36-5.1-4.01Z"/>
  <path class="cls-64" d="M218.62,329.94c8.87-3.24,17.48-7.35,27.1-8.12,1.17,0,2.34,0,3.52,0-1.16,6.13-5.73,9.31-10.96,10.93-12.44,3.83-25.08,7.04-38.19,10.65,1.01-2.39,1.71-4.05,2.41-5.72,3.9-5.64,10.12-6.45,16.12-7.73Z"/>
  <path class="cls-13" d="M155.82,333.42c-5.37-4.03-10.46-.46-15.64.6-1.55-.41-3.53-.39-4.52-1.36-1.03-1.02.59-2.32,1.58-2.63,7.09-2.21,8.13-6.38,7.47-13.73-.52-5.74.75-12.74,4.79-18.14,4.05-.59,3.72,2.42,4.05,4.89-.32,2.87-1.16,5.64-1.81,8.43-1.39,5.08-2.39,10.07,3.18,13.52,1.26.45,2.52.86,3.79,1.26,4.53,2.08,10.83.85,13.19,7-.5,1.53-1.52,2.58-3,3.2-4.71.45-9.26.24-13.09-3.05Z"/>
  <path class="cls-5" d="M353.45,296.86c.92-.83,1.83-1.66,2.75-2.49,4.56,2.45,3.25,7.95,5.92,11.38,2.68,7.01-1.93,14.87,2.57,21.66,2.73-.32,4.89.79,6.59,2.81.92,1.09,2.87,2.08,1.68,3.81-1.52,2.22-3.32-.38-5.02-.13-1.19-.22-2.38-.43-3.57-.65-.73-.15-1.21-.59-1.49-1.26-3.45-2.08-8.94,1.91-11.17-3.74.68-2.26,2.83-3.2,4.26-4.78,2.75-4.38,1.87-8.72-.1-13.07-1.67-4.37-4.03-8.61-2.4-13.55Z"/>
  <path class="cls-33" d="M364.68,327.42c-5.77-6.64-1.58-14.46-2.57-21.66,3.99,6.85.46,14.59,2.57,21.66Z"/>
  <path class="cls-69" d="M151.82,303.97c-.04-2.23.24-4.58-2.32-5.81.47-2.51,2.87-4.46,2.14-7.31,1.62,1.35,3.25,2.7,4.87,4.05.66,4.17,1.3,8.34-4.7,9.07Z"/>
  <path class="cls-90" d="M373.56,380.05c-1.37.62-3.04,2.98-4.06,1.47-2.31-3.42.29-6.45,2.05-9.38.24,2.13-.38,4.54,2,5.95,0,.65,0,1.3,0,1.95Z"/>
  <path class="cls-42" d="M263,320.26c1.62,1.91,4.04,1.22,6.05,1.87-1.42,3.69-3.7,3.42-6.36,1.37-1.01-1.04-4.99-.44-2.05-3.67.79.15,1.57.29,2.36.44Z"/>
  <path class="cls-95" d="M139.59,383.81c.22-2.52.44-5.05.66-7.57.02-1.32.04-2.63.06-3.95,2.67,4.02,3.52,7.93-.73,11.51Z"/>
  <path class="cls-12" d="M167.59,44.4c15.81-.59,31.1-4.83,46.83-6.37,25.19-2.48,50.33-1.1,75.48-1.4,18.63,3.19,37.47,5.39,55.35,11.99,2.69.99,5.65,1.82,7.79,3.58,4.41,3.62,4.21,8.75,1.78,13.14-2.55,4.59-6.19,1.07-9.22-.14-3.56-1.41-6.76-3.79-10.81-3.8-33.73-14.57-69.15-17.83-105.24-14.5-24.03,2.22-48.33,4-70.55,15.1-1.69.84-4.22,1.96-4.76-.74-.87-4.37-1.8-9.44,2.68-12.43,3.14-2.09,7.08-2.99,10.66-4.42Z"/>
  <path class="cls-32" d="M470.66,290.79c-2.57.02-3.72,1.42-3.81,3.87-1.63-2.16-3.26-4.32-5.42-7.19,3.82.51,6.53.87,9.24,1.23,0,.7,0,1.39,0,2.09Z"/>
  <path class="cls-46" d="M200.04,351.81c-17.96,34.19-21.09,54.75,18.14,64.34-10.86,7.52-19.14,16.21-25.42,26.75-2.15,3.61-4.93,2.87-7.96.13-13.92-12.56-24.31-27.44-31.07-44.94-2.51-6.49-2.45-12.56,1.35-18.47,10.3-15.99,26.39-22.16,44.95-27.81Z"/>
  <path class="cls-46" d="M331.75,433.08c3.38-15.37,7.4-30.44,6.87-46.26-.32-9.29-.22-18.41-12.19-20.87-1.95-.4-3.24-2.21-3.1-4.4.15-2.3,2.12-3.07,3.87-3.87,11.19-5.1,31.33,7.65,30.39,19.8-1.67,21.58-14.07,38.43-25.84,55.6Z"/>
  <path class="cls-46" d="M285.33,276.83c-6.62,10.72-16.88,18.21-25.39,27.25-2.44,2.59-3.59.05-5.11-1.75-3.09-3.68-6.27-7.37-9.9-10.49-3.33-2.85-7.75-4.47-11.36-.79-4.65,4.73-7.04,2.14-9.55-1.93-1.52-2.46-3.3-4.77-4.65-7.32-1.41-2.65-6.14-4.18-4.06-7.91,2.31-4.13,7.13-3.05,10.61-2.3,8.28,1.79,16.46,2.96,23.92,8.86,3.29,2.61,11.73,5.46,18.38,1.8,4.99-2.74,10.22-5.03,15.34-7.53.58.69,1.17,1.39,1.75,2.08Z"/>
  <path class="cls-10" d="M299.83,366.68c.66,7.24-3.5,12.01-8.25,16.65-10.83,10.58-17.92,26.89-37.43,23.91-1.27-.19-2.6-.07-3.86-.3-9.9-1.75-34.68-24.44-37.91-34.66,4.17-1.12,6.07,2.97,9.3,4,3.62,1.78,7.67,2.58,11.06,4.88,9.56,9.44,20.38,12.98,33.21,7.04,7.79-2.36,12.5-10.37,20.99-11.44,4.72-1.59,7.43-5.23,9.66-9.39.93-.93,1.83-2,3.24-.7Z"/>
  <path class="cls-88" d="M266.64,449.45c7.54,1.69,15.16,3.13,22.61,5.15,4.25,1.16,5.11,3.28.79,6.33-12.51,8.84-26.42,11.75-41.38,10.24-5.46-.55-8.75-3.97-9.33-9.52-.56-5.36,2.24-8.49,7.18-9.98,2.17-.65,4.35-1.26,6.52-1.88,4.46-3.22,9-3.15,13.61-.34Z"/>
  <path class="cls-48" d="M301.77,424.64c.56,1.47,1.13,2.95,1.69,4.42,2.67,3.36-.56,7.81,2.09,11.17.74.62,1.48,1.24,2.22,1.85,1.61,1.33,4.95,1.65,3.98,4.61-1.03,3.16-3.86,1.31-5.84.99-5.42-.88-10.78-2.1-16.18-3.1-3.12-.58-6.22-2-9.47-.51-8.59.54-17-.05-24.81-4.16-5.33-.57-10.66-1.14-15.99-1.72-1.81-2.87-.09-4.33,2.22-5.55,9.62-1.88,19.34-.83,29.01-.91,6.03.22,11.91,1.72,17.82,2.77,5.62.99,8.56-.65,9.05-6.38.8-1.89,1.31-4.12,4.19-3.48Z"/>
  <path class="cls-46" d="M274.06,354.31c.09,7.2-21.1,21.24-27.77,18.42-5.82-2.46-6.92-9.64-1.3-14.15,7.2-5.79,15.83-8.47,25.28-7.62,2.13.19,3.8.81,3.79,3.36Z"/>
  <path class="cls-7" d="M247.24,420.81c23.04-12.09,49.59-15.83,63.5-8.72-1.87,4.2-5.84,3.13-8.95,3.36-3.76.28-4.26,2.01-3.27,5.03-.69.81-1.57,1.19-2.63,1.16-7.05-3.02-14.23-2.66-21.46-.72-7.09-.24-13.43,4.14-20.61,3.41-2.5-.61-4.94-1.33-6.59-3.53Z"/>
  <path class="cls-77" d="M230.12,372.26c3.38,1.7,6.69,3.55,10.15,5.09,14.26,6.33,26.68,2.46,38.02-7.05,2.52,11.27-5.7,14.97-13.44,19.02-12.45,4.98-22.8,1.63-31.6-7.93-1.82-2.77-5.01-5.08-3.13-9.12Z"/>
  <path class="cls-101" d="M262.69,323.49c2.12-.46,4.24-.91,6.36-1.37,6.93,2.5,13.86,5.01,20.79,7.51,6.6,2.11,14.5,1.94,17.74,9.99.81,2.06,4.51,1.48,4.13,5.87-17.8-4.64-34.82-9.98-49.02-22Z"/>
  <path class="cls-102" d="M155.82,333.42c4.54.57,9.08,1.14,13.62,1.71,3.88-1.76,7.58-.2,11.33.59,2.29.8,4.67,1.46,6.17,3.61-6.65,6.97-29,4.41-33.51-3.99-.78-1.45,1.23-1.67,2.38-1.91Z"/>
  <path class="cls-86" d="M255.46,439.92c8.65-.85,16.74,1.62,24.81,4.16,1.14,2.68.62,4.32-2.66,3.85-3.67-.52-7.32-1.22-10.98-1.84-4.14,3.46-8.74,3.59-13.6,1.87-2.6-.28-5.48-.92-5.03-4.12.58-4.15,4.54-3.37,7.46-3.92Z"/>
  <path class="cls-56" d="M363.43,331.74c.33.49.64,1,.93,1.52-8.6-.91-14.48,5.71-21.93,7.86-6.55,1.88-13.68,6.04-19.44-1.85,1.42-1.95,3.65-2.49,5.72-3.32,2.12-.73,4.27-1.4,6.38-2.19,3.1-1,6.18-2.11,9.44-2.54,2.89-.32,5.78-.63,8.7-.66,3.38.59,7.03-1.19,10.2,1.19Z"/>
  <path class="cls-76" d="M220.05,377.79c-3.46-.58-4.91-3.96-7.68-5.5-3.41-7.34-5.05-14.67.72-21.66,2.63-3.18,5.95-4.77,12.47-2.74-10.2,5.79-15.55,12.63-7.4,22.46,1.26,1.76,3.6,2.53,4.31,4.79-.04,1.59-1.07,2.27-2.43,2.65Z"/>
  <path class="cls-19" d="M264.67,387.74c6.78-4.07,12.54-8.93,13.62-17.44,2.15-1.8.54-7.37,5.94-5.92,3.55,3.09.93,7.3,2.03,10.84,1.18.46,1.99,1.12,1.6,2.52-7.88,2.38-12.56,10.03-20.46,12.36-2.39.92-3.06-.14-2.72-2.36Z"/>
  <path class="cls-9" d="M335.09,335.61c-1.39,2.37-3.79,1.66-5.86,1.93-6.5,1.91-13.25-.24-19.78,1.23-.62.29-1.24.57-1.86.86-5-4.95-12.91-4.75-17.74-9.99,4.51-2.57,8.29-7.04,14.38-5.53.05,2.84-2.88,2.92-4.22,4.4,4.24.23,7.8,2.61,11.81,3.44,4.79,1.56,9.63,1.18,14.49.38.93-.11,1.85-.09,2.78.03,2.3.55,4.62,1.06,6.02,3.26Z"/>
  <path class="cls-41" d="M180.38,337.62c-3.94.46-7.46-.9-10.94-2.49.75-.61,1.5-1.22,2.25-1.84,2.57-2.51,5.68-2.09,8.79-1.66,5.6,1.53,11.23,1.84,16.89.34,2.15-.73,4.27-1.56,6.46-2.17,1.49-.4,3.2-1.24,4.52-.82,6.3,1.98-.06-2.99,1.89-3.28,4.06-1.08,5.8,2.42,8.38,4.24-4.45,4.49-10.68,5.29-16.12,7.73-2.86-1.38-4.91,3.07-7.86,1.09-4.68-1.29-9.6.41-14.26-1.15Z"/>
  <path class="cls-73" d="M286.58,376.32c-5.45-3.06-1.18-8.04-2.35-11.94,4.14-2.52,5.54-6.39,5.46-10.99,3.56-1.81,4.57.96,5.87,3.24,1.66,8.67.49,16.07-8.98,19.69Z"/>
  <path class="cls-91" d="M247.24,420.81c2.04.23,4.33-.37,5.8,1.74-.07,1.33-.73,2.36-1.57,3.33-1.85,1.74-2.63,4.38-4.87,5.81-1.7.82-3.55.67-5.35.87-2.51.12-3.35,2.69-5.22,3.59-4.19,2.04-5.85.69-4.46-3.89,3.7-5.89,9.25-9.26,15.66-11.45Z"/>
  <path class="cls-3" d="M293.93,356.78c-1.28-1.29-1.96-3.35-4.24-3.39-1.82-1.62-3.63-3.25-5.8-5.18,11.9-1.85,16.34,3.58,15.93,18.47-.62.61-1.24,1.22-1.86,1.83-2.85.53-2.92-1.4-3.12-3.38-.28-2.78.8-5.72-.92-8.35Z"/>
  <path class="cls-2" d="M220.05,377.79c.67-.58,1.35-1.15,2.02-1.73,3.02-2.53,2.27-6.5,3.67-9.65v-.03c3.83-1.13,2.24,3.01,3.9,3.98.16.63.32,1.26.48,1.9,1.27,2.41,2.54,4.83,3.8,7.24.43,2.33-.51,3.29-2.86,2.82-3.34-2.32-8.09-1.21-11.02-4.53Z"/>
  <path class="cls-75" d="M231.58,432.26c.61,2.22,1.18,5.12,3.94,1.76,2.07-2.52,4.09-3.83,7.25-2.34,0,.85-.22,1.63-.72,2.32-1.81.82-2.49,2.33-2.58,4.21-3.55.27-7.57,2.26-10.25-1.34-1.12-1.51.96-3.33,2.36-4.61Z"/>
  <path class="cls-87" d="M225.75,366.41c-.7,3.41,2.92,8.47-3.68,9.65-1.24-1.94-4.52-2.5-3.9-5.71,4.21,1.92,5.92-.96,7.58-3.94Z"/>
  <path class="cls-29" d="M309.45,338.76c6.43-2.99,13.17-1.02,19.78-1.23-2.08.58-4.16,1.16-6.24,1.73-4.51-.17-9.03-.34-13.54-.5Z"/>
  <path class="cls-47" d="M253.04,447.97c4.7.61,9.12-.86,13.6-1.87,0,1.12,0,2.24,0,3.36-4.54.11-9.07.23-13.61.34,0-.61,0-1.22,0-1.83Z"/>
  <path class="cls-94" d="M180.38,337.62c4.79-.02,9.7-1.68,14.26,1.15-2.56.19-5.13.38-7.69.56-2.19-.57-4.38-1.14-6.57-1.71Z"/>
  <path class="cls-14" d="M296.03,420.74c.83-.08,1.66-.16,2.49-.25,2.95-.07,3.49,1.74,3.25,4.15-1.95.94-1.97,2.92-2.52,4.62-3.26-.8-3.62-3.58-4.24-6.18,0-.93.34-1.71,1.03-2.34Z"/>
  <path class="cls-81" d="M305.55,440.24c-3.48-3.2-1.51-7.43-2.09-11.17,2.93,3.31,2.03,7.33,2.09,11.17Z"/>
  <path class="cls-87" d="M229.64,370.36c-1.3-1.33-2.59-2.66-3.89-3.98-.24-1.38.37-3,1.61-2.46,2.72,1.17,2.56,3.91,2.28,6.45Z"/>
  <path class="cls-25" d="M39.54,311.63c-.09-4.38-.18-8.76-.27-13.15,5.07-3.96,5.34-3.96,7.56-.06-3.16,4-3.08,9.78-7.29,13.21Z"/>
  <path class="cls-98" d="M46.83,298.42c-2.55-3.34-5.03.85-7.56.06-.01-.62-.02-1.24-.01-1.86,2.35-1.53.72-7.06,5.85-5.81-1.84,3.08,6.11,3.95,1.73,7.61Z"/>
  <path class="cls-25" d="M45.1,290.81c-1.95,1.94-3.9,3.87-5.85,5.81-.02-2.6-.03-5.2-.05-7.8,1.27-.04,2.54-.08,3.8-.13,2.05-.65,2.5.31,2.11,2.1h-.02Z"/>
  <path class="cls-98" d="M45.12,290.8c-.7-.7-1.41-1.4-2.11-2.1,1.46-1.49,3.32-3.85,5.12-1.74,1.11,1.3-1.37,2.96-3,3.85Z"/>
  <path class="cls-92" d="M151.82,303.97c2.98-2.29,3.32-5.95,4.7-9.07,10.34-.02,18.76,6.67,21.09,16.3.74,3.04,2.45,5.84,3.72,8.75-7.59,3.46-15.97,4.51-23.63,7.76-1.19-.07-2.38-.13-3.56-.2-4.12-4.47-6.61-9.35-3.92-15.53.33-2.71-.91-5.74,1.61-8.01Z"/>
  <path class="cls-20" d="M157.69,327.72c6.23-7.6,14.81-8.02,23.63-7.77,3.9,2.45,7.93,4.39,12.74,3.42,6.29-1.24,10.63.03,9.99,7.72-1.82.86-3.64,1.73-5.46,2.59-5.83,1.04-11.66,1.26-17.48-.11-3.14-.1-6.28-.19-9.41-.29-3.87-3.87-9.62-3.01-14-5.57Z"/>
  <path class="cls-30" d="M204.05,331.1c-1.52-4.91-4.53-7.89-9.98-7.72,6.27-5.38,10.63,2.59,16.17,2.32.81,1.16,1.62,2.32,2.43,3.48-2.73,1.27-5.34,3.09-8.62,1.93Z"/>
  <path class="cls-99" d="M328.91,333.59c-.67.03-1.34.05-2.02.08-5.16,1.23-10.33,1.07-15.51.12-4.49-1.47-8.98-2.93-13.48-4.4.94-3.66,5.15-2.54,6.33-5.28,3.91-.74,7.34-2.58,11.91-1.02,6.34,2.17,10.74-2.31,14.35-7.1,8.86-7.97,19.02-8.61,28.09-1.79-.06,3.82,2.06,7.9-1.4,11.3-1.65.77-3.3,1.53-4.96,2.3-.64.66-1.35,1.24-2.13,1.73-3.61,2.23-8.15,1.3-11.78,3.48-3.15-.07-6.16,2.24-9.4.58Z"/>
  <path class="cls-55" d="M357.83,314.27c-9.39-3.87-18.41-1.75-27.34,1.71-.16-10.25,5.6-16.03,14.49-19.86,3.26-1.4,5.87-2.19,8.47.73,2.05,4.3,1.66,9.45,4.72,13.39.9,1.42.98,2.78-.34,4.02Z"/>
  <path class="cls-69" d="M150.2,311.99c1.14,5.22-.38,11.11,3.92,15.53-7.27-3.68-7.52-9.12-3.92-15.53Z"/>
  <path class="cls-65" d="M350.15,328.12c.69-.11,1.38-.21,2.07-.32,3.31,3.6,7.95.53,11.6,2.34.16.08.23.58.16.84-.08.28-.36.51-.55.76-3.57.02-7.15.04-10.72.05-3.61.68-3.54-1.18-2.56-3.68Z"/>
  <path class="cls-63" d="M357.83,314.27c.11-1.34.22-2.68.34-4.02,2.28,5.25,3.78,10.45-.99,15.24,1.17-3.69,1.87-7.4.66-11.23Z"/>
  <path class="cls-51" d="M231.07,382.32c.95-.94,1.9-1.88,2.86-2.82,8.56,9.04,18.74,12.05,30.75,8.24.9.79,1.81,1.57,2.71,2.36-14.7,6.18-25.97,3.77-36.32-7.78Z"/>
  <path class="cls-51" d="M293.93,356.78c4.03,2.99-.4,8.88,4.04,11.73-1.67,4.94-4.42,8.69-10.12,9.23-.43-.48-.85-.95-1.28-1.43,4.73-5.66,9.72-11.22,7.36-19.54Z"/>
  <path class="cls-109" d="M295.86,422.73c1.13,2.18,2.26,4.36,3.39,6.54,1.25,8.04-1.26,11.03-9.73,8.24-5.41-1.78-11.28-2.18-16.94-3.2-1.7-1.89-4.92.29-6.35-2.34,3.78-6.64,10.18-2.75,15.5-3.94-2.22-2.16-4.4-5.4-1.13-7.34,5.13-3.04,10.85-3.59,15.26,2.04Z"/>
  <path class="cls-60" d="M266.94,431.95c1.88.78,3.75,1.57,5.63,2.35-10.18-.1-20.35-.2-30.53-.31.24-.78.48-1.55.72-2.32,1.48-.34,2.96-.69,4.44-1.03,2.75-3.14,6.61-2.6,10.75-3.11.71-.03-1.11-1.95-.54-.79.21.43-.04.7-.71.61-2.32-.31-6.1,2.13-5.88-3.06.74-.58,1.48-1.17,2.22-1.75,7.39-.2,13.93-5.09,21.57-3.87.67,1.36-.23,3.12,1.36,4.31,5.22,3.92,1.55,4.71-2.01,5.47-2.64.57-6.29-.9-7.02,3.49Z"/>
  <path class="cls-104" d="M266.94,431.95c-.58-7.61,6.06-3.98,9.29-5.89-1.5-2.69-6.37.45-6.42-3.35-.01-1.33,3.11-2.69,4.8-4.03,7.29-.8,14.95-5.53,21.42,2.05-.06.66-.12,1.33-.18,1.99-5.1-2.21-10.18-3.31-15.91.13,2.14,4.03,8.09,1.19,9.15,6.35-7,3.56-15.22-1.08-22.16,2.75Z"/>
  <path class="cls-63" d="M350.15,328.12c.2,1.68.95,2.98,2.56,3.68-2.57,1.67-5.46,1.65-8.36,1.59-1.55-1.86-4.39.22-5.85-1.91,3.48-2.52,7.67-2.58,11.65-3.36Z"/>
  <path class="cls-84" d="M338.49,331.48c2.03.39,4.42-.32,5.85,1.91-3.03.96-5.87,2.7-9.25,2.22-2.16-.38-4.66.28-6.19-2.02,3.2-.7,6.39-1.41,9.59-2.11Z"/>
  <path class="cls-29" d="M311.38,333.78c5.17-.04,10.34-.08,15.51-.12-5.15,2.81-10.32,2.72-15.51.12Z"/>
  <path class="cls-94" d="M181.11,333.58c5.83.04,11.65.07,17.48.11-5.84,2.82-11.67,2.91-17.48-.11Z"/>
  <path class="cls-71" d="M250.82,424.3c1.78,3.29,5.83,1.1,8.56,3.71-4.32.93-8.25,1.78-12.17,2.63.46-2.53-.64-5.96,3.61-6.34Z"/>
</svg>